<svg width="254" height="314" viewBox="0 0 254 314" fill="none" xmlns="http://www.w3.org/2000/svg">
<g opacity="0.89" clip-path="url(#clip0_1_509)">
<path d="M115.428 263.209C114.471 263.429 113.514 263.65 112.606 263.792C112.224 263.88 112.062 264.051 111.944 264.414C111.3 266.578 110.672 268.805 110.028 270.969C109.91 271.332 109.763 271.567 109.366 271.592C102.785 272.772 96.1907 273.889 89.6105 275.069C89.5467 275.084 89.4829 275.099 89.3406 275.065C90.7121 267.023 92.1621 259.031 93.568 250.848C92.2922 251.142 91.0948 251.485 89.9172 251.622C88.8819 251.794 88.3812 252.245 87.9344 253.221C86.589 256.42 85.1651 259.569 83.805 262.704C83.638 263.145 83.3485 263.346 82.8381 263.464C81.42 263.724 80.0167 264.047 78.6133 264.37C78.4219 264.415 78.1667 264.473 77.9116 264.532C78.235 265.935 78.529 267.211 78.7886 268.629C79.6178 268.438 80.3833 268.262 81.2764 268.056C81.1438 268.355 81.1241 268.561 81.0259 268.718C79.8328 271.411 78.6396 274.105 77.4612 276.862C77.2795 277.239 77.0538 277.426 76.671 277.514C72.716 278.425 68.7463 279.273 64.7913 280.185C62.431 280.728 60.159 281.655 58.2106 283.112C57.0818 284.044 56.1737 285.059 55.8151 286.418C55.8886 286.737 55.9621 287.056 56.0356 287.375C57.0754 288.68 58.5914 289.137 60.1909 289.373C62.4233 289.732 64.6019 289.565 66.7854 289.129C70.7552 288.282 74.6611 287.449 78.6161 286.537C78.9988 286.449 79.2834 286.518 79.6121 286.778C81.8145 288.756 84.066 290.655 86.3323 292.619C86.4893 292.717 86.5971 292.893 86.8473 293.104C85.9542 293.31 85.1888 293.487 84.3595 293.678C84.6829 295.081 84.9769 296.357 85.2365 297.775C86.4485 297.496 87.6899 297.344 88.8088 296.952C90.2465 296.486 91.2572 296.79 92.3658 297.811C94.7693 300.079 97.2563 302.125 99.7089 304.314C100.052 304.638 100.337 304.707 100.783 304.604C102.251 304.266 103.654 303.943 105.249 303.575C100.545 296.867 95.9059 290.144 91.2025 283.435C92.0171 283.18 92.7826 283.004 93.5334 282.764C99.2942 281.235 104.991 279.72 110.752 278.191C111.135 278.103 111.419 278.172 111.684 278.447C113.161 280.189 114.686 281.852 116.148 283.531C116.427 283.869 116.712 283.938 117.095 283.85C117.988 283.644 118.945 283.424 119.838 283.218C119.808 283.09 119.779 282.963 119.749 282.835C119.671 282.786 119.641 282.659 119.563 282.609C118.528 280.161 117.509 277.776 116.538 275.313C116.219 274.513 115.886 273.649 115.808 272.727C115.602 270.961 115.588 269.15 115.525 267.418C115.501 266.147 115.476 264.877 115.438 263.542C115.487 263.464 115.457 263.336 115.428 263.209Z" fill="#FEB200"/>
<path d="M162.381 7.53734C194.636 41.6851 216.402 90.0729 219.822 136.979C224.712 204.84 174.44 263.044 109.104 275.414" stroke="#FEB200" stroke-width="2" stroke-miterlimit="10" stroke-dasharray="10 10"/>
</g>
<defs>
<clipPath id="clip0_1_509">
<rect width="196.911" height="276.367" fill="white" transform="matrix(0.974459 -0.224565 -0.224565 -0.974459 62.0625 313.527)"/>
</clipPath>
</defs>
</svg>
