<svg width="259" height="337" viewBox="0 0 259 337" fill="none" xmlns="http://www.w3.org/2000/svg">
<g opacity="0.49" clip-path="url(#clip0_1_505)">
<path d="M154.729 50.2272C155.829 50.0916 156.928 49.956 157.964 49.9028C158.404 49.8486 158.605 49.6749 158.78 49.2813C159.755 46.9286 160.721 44.5027 161.696 42.15C161.871 41.7564 162.064 41.5094 162.513 41.5285C170.035 40.9732 177.566 40.4911 185.089 39.9358C185.162 39.9268 185.235 39.9177 185.391 39.973C182.911 48.8363 180.35 57.6354 177.815 66.6543C179.281 66.4736 180.665 66.2286 182.003 66.2125C183.184 66.1412 183.799 65.6934 184.415 64.6501C186.298 61.218 188.265 57.8502 190.157 54.4914C190.396 54.0155 190.745 53.8237 191.331 53.7514C192.953 53.6259 194.566 53.4271 196.179 53.2282C196.398 53.2011 196.692 53.165 196.985 53.1288C196.786 51.5162 196.605 50.0502 196.48 48.4286C195.527 48.546 194.647 48.6545 193.621 48.781C193.805 48.4607 193.851 48.2318 193.979 48.0671C195.633 45.1843 197.287 42.3015 198.932 39.3453C199.18 38.9427 199.455 38.7599 199.895 38.7057C204.44 38.1454 208.994 37.6584 213.539 37.0981C216.251 36.7637 218.909 35.9895 221.266 34.5827C222.642 33.6689 223.779 32.6357 224.341 31.1526C224.295 30.7861 224.25 30.4196 224.205 30.0531C223.191 28.4666 221.543 27.7768 219.776 27.325C217.313 26.6613 214.848 26.593 212.347 26.827C207.793 27.314 203.312 27.792 198.767 28.3523C198.328 28.4065 198.016 28.2961 197.678 27.9657C195.438 25.4886 193.133 23.0938 190.82 20.6257C190.655 20.4971 190.554 20.2863 190.298 20.0202C191.325 19.8937 192.204 19.7852 193.157 19.6677C192.958 18.0551 192.778 16.5891 192.652 14.9675C191.259 15.1392 189.849 15.1643 188.547 15.4736C186.879 15.828 185.781 15.3682 184.656 14.0929C182.224 11.2674 179.672 8.67978 177.176 5.93655C176.829 5.5329 176.517 5.42245 176.004 5.48571C174.318 5.69357 172.705 5.89239 170.873 6.11833C175.366 14.1964 179.787 22.2835 184.28 30.3616C183.336 30.5524 182.457 30.6608 181.586 30.8426C174.942 31.8849 168.372 32.9182 161.729 33.9605C161.289 34.0147 160.977 33.9042 160.712 33.5648C159.259 31.4371 157.742 29.3918 156.298 27.3374C156.024 26.9247 155.713 26.8142 155.273 26.8684C154.247 26.995 153.147 27.1305 152.121 27.257C152.139 27.4036 152.157 27.5502 152.175 27.6968C152.257 27.7611 152.275 27.9077 152.358 27.972C153.232 30.8407 154.098 33.6362 154.899 36.514C155.163 37.4488 155.436 38.4569 155.416 39.5012C155.44 41.5074 155.245 43.5407 155.113 45.4917C154.991 46.9206 154.87 48.3495 154.757 49.8516C154.693 49.9339 154.711 50.0805 154.729 50.2272Z" fill="#512EA6"/>
<path d="M72.1408 331.65C39.9374 289.557 21.171 232.711 22.8183 179.674C25.2661 102.949 88.4873 43.5108 163.253 37.2699" stroke="#512EA6" stroke-width="2" stroke-miterlimit="10" stroke-dasharray="10 10"/>
</g>
<defs>
<clipPath id="clip0_1_505">
<rect width="222.17" height="311.817" fill="white" transform="matrix(-0.992486 0.122359 0.122359 0.992486 220.5 0)"/>
</clipPath>
</defs>
</svg>
